<svg preserveAspectRatio="xMidYMid meet" data-bbox="0 -0.216 596.7 66.316" viewBox="0 -0.216 596.7 66.316" xmlns="http://www.w3.org/2000/svg" data-type="color" role="presentation" aria-hidden="true" aria-label="">
    <g>
        <path fill="#6e55f4" d="M348.6 12.7v52.2H343V12.7h5.6z" data-color="1"></path>
        <path fill="#6e55f4" d="M444.6 12.7v52.2H439V12.7h5.6z" data-color="1"></path>
        <path d="M419.2 59.9c0 .5-.3.7-.5.8s-.6.1-.9-.2l-44.4-48c-1.8-1.9-4.5-2.5-6.9-1.6-2.4.9-4 3.2-4 5.8V65h5.5V16.7c0-.5.3-.7.5-.8s.6-.1.9.2l44.4 48c1.2 1.3 2.9 2 4.6 2 .8 0 1.5-.1 2.3-.4 2.4-.9 4-3.2 4-5.8V12.5h-5.5v47.4z" fill="#6e55f4" data-color="1"></path>
        <path d="M324.5 11.5c-2.5-1-5.4-.3-7.3 1.7L291.5 41c-.3.3-.7.4-.9.4-.2 0-.5 0-.9-.4l-27.1-28.6c-1.8-1.9-4.5-2.5-6.9-1.6-2.4.9-4 3.2-4 5.8V65h5.4V16.7c0-.5.3-.7.5-.8s.6-.1.9.2l27.1 28.6c1.2 1.3 3 2.1 4.8 2.1 1.8 0 3.6-.8 4.8-2.1L321 16.8c.5-.5 1-.4 1.3-.3.3.1.7.4.7 1.1V65h5.5V17.6c.2-2.7-1.4-5.1-4-6.1z" fill="#6e55f4" data-color="1"></path>
        <path d="M591.2 12.5v47.3c0 .5-.3.7-.5.8s-.6.1-.9-.2l-44.3-48c-1.8-1.9-4.5-2.5-6.9-1.6-2.4.9-4 3.2-4 5.8V65h5.5V16.7c0-.5.3-.7.5-.8s.6-.1.9.2l44.3 48c1.2 1.3 2.9 2 4.6 2 .8 0 1.5-.1 2.3-.4 2.4-.9 4-3.2 4-5.8V12.5h-5.5z" fill="#6e55f4" data-color="1"></path>
        <path d="M41.2 12.3H6.6C3 12.3 0 15.3 0 19v40c0 3.7 3 6.6 6.6 6.6h34.6c14.4 0 26.1-11.7 26.1-26.1v-1.1c0-14.4-11.7-26.1-26.1-26.1zm20.6 27.2c0 11.4-9.2 20.6-20.6 20.6H6.6c-.6 0-1.2-.5-1.2-1.2V19c0-.6.5-1.2 1.2-1.2h34.6c11.4 0 20.6 9.2 20.6 20.6v1.1z" fill="#000000" data-color="2"></path>
        <path d="M103.4 11.3c-2.3 0-4.5 1.2-5.7 3.2l-30 50.3h6.4l7.6-12.7h43.5l7.6 12.7h6.4l-30-50.3c-1.3-2-3.5-3.2-5.8-3.2zM84.9 46.7l17.4-29.3c.3-.5.8-.6 1-.6.2 0 .7.1 1 .6l17.5 29.3H84.9z" fill="#000000" data-color="2"></path>
        <path d="M208.9 11.3c-2.4 0-4.5 1.2-5.7 3.2l-30 50.3h6.4l7.6-12.7h43.4l7.6 12.7h6.4l-30-50.3c-1.2-2-3.3-3.2-5.7-3.2zm-18.4 35.4 17.4-29.3c.3-.5.8-.6 1-.6.2 0 .7.1 1 .6l17.5 29.3h-36.9z" fill="#000000" data-color="2"></path>
        <path d="M190.5 17.8v-5.5h-68.6v5.5h31.6v47h5.4v-47h31.6z" fill="#000000" data-color="2"></path>
        <path d="M521 42.5c-1.5-.2-2.8.9-3 2.4-.2 1.8-.5 3.7-.9 5.5-.8 3.4-5 7.2-8.5 7.8-6.1.9-12.6 1.3-18.7 1.3-.1 0 .1 0 0 0s.1 0 0 0c-6.1 0-12.6-.5-18.7-1.3-3.5-.6-7.7-4.5-8.5-7.8-.4-1.8-.7-3.7-.9-5.5-.2-1.5-1.5-2.6-3-2.4-1.5.2-2.6 1.5-2.4 3 .2 2 .6 4 1 6 1.3 5.6 7.2 11.1 13 12 6.4.9 13.2 1.4 19.5 1.4.1 0-.1 0 0 0s-.1 0 0 0c6.4 0 13.2-.5 19.5-1.4 5.7-.9 11.7-6.4 12.9-12 .4-2 .8-4 1-6 .3-1.4-.8-2.8-2.3-3z" fill="#6e55f4" data-color="1"></path>
        <path d="M522.4 24.4c-1.3-5.6-7.2-11.1-12.9-12-.4-.1-.9-.1-1.3-.2v-4c.9-.7 1.6-1.7 1.8-2.8.2-1.2 0-2.4-.7-3.5s-1.7-1.7-2.9-2-2.4 0-3.5.7c-1 .7-1.7 1.7-2 2.9-.4 1.8.4 3.6 1.8 4.6v3.3c-4.2-.4-8.7-.6-12.8-.6-.1 0 .1 0 0 0s.1 0 0 0c-4 0-8.3.2-12.3.6V8.3c.9-.7 1.6-1.6 1.8-2.8.5-2.5-1.1-4.9-3.6-5.4-1.2-.2-2.4 0-3.5.7-1 .7-1.7 1.7-2 2.9-.4 1.8.4 3.6 1.8 4.6v3.9c-.6.1-1.2.2-1.8.2-5.8.9-11.7 6.4-12.9 12-.7 3.2-1.1 6.5-1.3 9.7-.1 1.5 1 2.8 2.5 2.9h.2c1.4 0 2.6-1.1 2.7-2.5.2-2.9.6-5.9 1.2-8.9.8-3.4 5-7.2 8.5-7.8 6.1-.9 12.6-1.4 18.7-1.4.1 0-.1 0 0 0s-.1 0 0 0c6.1 0 12.6.5 18.7 1.4 3.5.6 7.7 4.5 8.5 7.8.6 3 1 5.9 1.2 8.9.1 1.4 1.3 2.5 2.7 2.5h.2c1.5-.1 2.6-1.4 2.5-2.9-.1-3.1-.6-6.4-1.3-9.7z" fill="#6e55f4" data-color="1"></path>
        <path d="M478.5 35.6c0-3-2.5-5.5-5.5-5.5s-5.5 2.5-5.5 5.5 2.5 5.5 5.5 5.5 5.5-2.4 5.5-5.5z" fill="#6e55f4" data-color="1"></path>
        <path d="M512.3 35.6c0-3-2.5-5.5-5.5-5.5s-5.5 2.5-5.5 5.5 2.5 5.5 5.5 5.5 5.5-2.4 5.5-5.5z" fill="#6e55f4" data-color="1"></path>
    </g>
</svg>