<svg preserveAspectRatio="xMidYMid meet" data-bbox="16.2 13.826 565.5 66.274" viewBox="16.2 13.826 565.5 66.274" xmlns="http://www.w3.org/2000/svg" data-type="shape" role="presentation" aria-hidden="true" aria-label="">
    <g>
        <path d="M113 26.7v52.2h-5.6V26.7h5.6z"></path>
        <path d="M209 26.7v52.2h-5.6V26.7h5.6z"></path>
        <path d="M183.6 73.9c0 .5-.3.7-.5.8-.2.1-.6.1-.9-.2l-44.4-48c-1.8-1.9-4.5-2.5-6.9-1.6-2.4 1-4 3.2-4 5.8V79h5.5V30.7c0-.5.3-.7.5-.8s.6-.1.9.2l44.4 48c1.2 1.3 2.9 2 4.6 2 .8 0 1.5-.1 2.3-.4 2.4-.9 4-3.2 4-5.8V26.6h-5.5v47.3z"></path>
        <path d="M88.9 25.5c-2.5-1-5.4-.3-7.3 1.7L55.9 55.1c-.3.3-.7.4-.9.4-.2 0-.5 0-.9-.4l-27-28.6c-1.8-1.9-4.5-2.5-6.9-1.6-2.4 1-4 3.2-4 5.8V79h5.4V30.7c0-.5.3-.7.5-.8s.6-.1.9.2l27.1 28.6c1.2 1.3 3 2.1 4.8 2.1 1.8 0 3.6-.8 4.8-2.1l25.8-27.9c.5-.5 1-.4 1.3-.3.3.1.7.4.7 1.1V79H93V31.7c.1-2.8-1.5-5.2-4.1-6.2z"></path>
        <path d="M355.6 26.6v47.3c0 .5-.3.7-.5.8-.2.1-.6.1-.9-.2l-44.3-48c-1.8-1.9-4.5-2.5-6.9-1.6-2.4 1-4 3.2-4 5.8V79h5.5V30.7c0-.5.3-.7.5-.8s.6-.1.9.2l44.3 48c1.2 1.3 2.9 2 4.6 2 .8 0 1.5-.1 2.3-.4 2.4-.9 4-3.2 4-5.8V26.6h-5.5z"></path>
        <path d="M581.7 31.8v-5.4h-68.6v5.4h31.6v47h5.4v-47h31.6z"></path>
        <path d="M507.3 56.6c-1.5-.2-2.8.9-3 2.4-.2 1.8-.5 3.7-.9 5.5-.8 3.4-5 7.2-8.5 7.8-6.1.9-12.6 1.3-18.7 1.3-.1 0 .1 0 0 0s.1 0 0 0c-6.1 0-12.6-.5-18.7-1.3-3.5-.6-7.7-4.5-8.5-7.8-.4-1.8-.7-3.7-.9-5.5-.2-1.5-1.5-2.6-3-2.4-1.5.2-2.6 1.5-2.4 3 .2 2 .6 4 1 6 1.3 5.6 7.2 11.1 13 12 6.4.9 13.2 1.4 19.5 1.4.1 0-.1 0 0 0s-.1 0 0 0c6.4 0 13.2-.5 19.5-1.4 5.7-.9 11.7-6.4 12.9-12 .4-2 .8-4 1-6 .3-1.5-.8-2.9-2.3-3z"></path>
        <path d="M508.7 38.4c-1.3-5.6-7.2-11.1-12.9-12-.4-.1-.9-.1-1.3-.2v-4c.9-.7 1.6-1.7 1.8-2.8.2-1.2 0-2.4-.7-3.5s-1.7-1.7-2.9-1.9c-1.2-.2-2.4 0-3.5.7-1 .7-1.7 1.7-2 2.9-.4 1.8.4 3.6 1.8 4.6v3.3c-4.2-.4-8.7-.6-12.8-.6-.1 0 .1 0 0 0s.1 0 0 0c-4 0-8.3.2-12.3.5v-3.3c.9-.7 1.6-1.6 1.8-2.8.5-2.5-1.1-4.9-3.6-5.4-1.2-.2-2.4 0-3.5.7-1 .7-1.7 1.7-2 2.9-.4 1.8.4 3.6 1.8 4.6V26c-.6.1-1.2.2-1.8.2-5.8.9-11.7 6.4-12.9 12-.7 3.2-1.1 6.5-1.3 9.7-.1 1.5 1 2.8 2.5 2.9h.2c1.4 0 2.6-1.1 2.7-2.5.2-2.9.6-5.9 1.2-8.9.8-3.4 5-7.2 8.5-7.8 6.1-.9 12.6-1.4 18.7-1.4.1 0-.1 0 0 0s-.1 0 0 0c6.1 0 12.6.5 18.7 1.4 3.5.6 7.7 4.5 8.5 7.8.6 3 1 5.9 1.2 8.9.1 1.4 1.3 2.5 2.7 2.5h.2c1.5-.1 2.6-1.4 2.5-2.9-.1-2.9-.6-6.2-1.3-9.5z"></path>
        <path d="M464.8 49.6c0-3-2.5-5.5-5.5-5.5s-5.5 2.5-5.5 5.5 2.5 5.5 5.5 5.5 5.5-2.4 5.5-5.5z"></path>
        <path d="M498.6 49.6c0-3-2.5-5.5-5.5-5.5s-5.5 2.5-5.5 5.5 2.5 5.5 5.5 5.5 5.5-2.4 5.5-5.5z"></path>
        <path d="M253.7 79.1c-6.5 0-12.9-.5-19.4-1.4-5.8-.9-11.7-6.5-13-12.1-1.9-9-1.9-18.2 0-27.3 1.3-5.6 7.2-11.1 13-12.1 12.8-1.9 25.9-1.9 38.7 0 5.8.9 11.7 6.5 13 12.1 1.9 9 1.9 18.2 0 27.3-1.3 5.6-7.2 11.1-13 12.1-6.4.9-12.8 1.4-19.3 1.4zm-18.6-6.8c12.3 1.8 24.8 1.8 37.1 0 3.5-.6 7.8-4.5 8.6-7.9 1.7-8.3 1.7-16.7 0-25-.8-3.4-5-7.3-8.6-7.9-12.3-1.8-24.8-1.8-37.1 0-3.5.6-7.8 4.5-8.6 7.9-1.7 8.3-1.7 16.7 0 25 .9 3.4 5.1 7.3 8.6 7.9z"></path>
        <path d="M425 50.2V39.1c0-6.9-5.7-12.6-12.6-12.6h-35.1c-4.2 0-7.6 3.4-7.6 7.6v37.1c0 4.2 3.4 7.6 7.6 7.6h45.2c6.9 0 12.6-5.7 12.6-12.6v-3.6c-.1-6.1-4.4-11.2-10.1-12.4zm-50.1-16.1c0-1.3 1.1-2.4 2.4-2.4h35.1c4.1 0 7.4 3.3 7.4 7.4v8.4c0 1.4-1.1 2.5-2.5 2.5h-39.9c-1.4 0-2.5-1.1-2.5-2.5V34.1zm54.9 32c0 4.1-3.3 7.4-7.4 7.4h-45.2c-1.3 0-2.4-1.1-2.4-2.4V57.7c0-1.4 1.1-2.5 2.5-2.5h45.1c4.1 0 7.4 3.3 7.4 7.4v3.5z"></path>
    </g>
</svg>
