<svg xmlns="http://www.w3.org/2000/svg" width="24" height="24" viewBox="0 0 24 24" class="prefix__search-image prefix__search-svg-icon" role="none"><path d="M10.961 5c3.292 0 5.961 2.669 5.961 5.961 0 1.37-.462 2.631-1.238 3.638l3.264 3.266c.063.062.075.156.038.23l-.038.052-.8.801c-.063.063-.157.075-.232.038l-.051-.038-3.266-3.264c-1.007.776-2.268 1.238-3.638 1.238C7.67 16.922 5 14.253 5 10.962 5 7.668 7.669 5 10.961 5zm-.005 1.079c-2.694 0-4.877 2.183-4.877 4.877s2.183 4.877 4.877 4.877 4.877-2.183 4.877-4.877-2.183-4.877-4.877-4.877z" transform="translate(-1109 -144) translate(1109 144)"></path></svg>
